<?xml version="1.0" encoding="UTF-8"?>
<svg version="1.1" xmlns="http://www.w3.org/2000/svg" width="444" height="444">
<path d="M0 0 C1.32446217 0.37225859 2.64467848 0.759858 3.9609375 1.16015625 C5.04967163 1.48850464 5.04967163 1.48850464 6.16040039 1.82348633 C40.36686377 12.5827572 76.48607062 34.16470883 99.3359375 62.22265625 C99.94091064 62.9511377 99.94091064 62.9511377 100.55810547 63.69433594 C107.74114706 72.37067335 113.9650832 81.31730957 119.3359375 91.22265625 C119.66658203 91.82787109 119.99722656 92.43308594 120.33789062 93.05664062 C131.39383367 113.73982633 144.32518879 145.44947278 142.3359375 169.22265625 C140.98086023 171.97152727 140.03233959 172.56804588 137.3359375 174.22265625 C133.42362075 175.52676183 129.89835295 175.29986114 125.80541992 175.25170898 C124.58302612 175.23732788 124.58302612 175.23732788 123.3359375 175.22265625 C123.44655518 175.80934082 123.55717285 176.39602539 123.67114258 177.00048828 C124.90280122 185.62937713 123.30378232 193.2551983 121.53271484 201.66583252 C120.6698333 205.78613326 119.86751577 209.91809452 119.06640625 214.05078125 C118.90989594 214.85613312 118.75338562 215.66148499 118.59213257 216.49124146 C115.04054506 235.00366752 114.17158219 253.37516758 117.90625 271.93359375 C119.45450981 280.18159602 119.45450981 280.18159602 117.35546875 284.01171875 C115.51003634 286.40794175 113.86886833 288.02100675 111.0234375 289.09765625 C110.188125 289.15953125 110.188125 289.15953125 109.3359375 289.22265625 C109.3359375 289.88265625 109.3359375 290.54265625 109.3359375 291.22265625 C109.98820312 291.35800781 110.64046875 291.49335938 111.3125 291.6328125 C112.18648438 291.84808594 113.06046875 292.06335938 113.9609375 292.28515625 C114.81945312 292.48238281 115.67796875 292.67960937 116.5625 292.8828125 C125.07122762 296.99336683 128.68290007 307.13186972 132.7109375 315.16015625 C133.37959311 316.47748598 134.04894994 317.79446 134.71899414 319.11108398 C136.02344842 321.67790181 137.3223631 324.24740217 138.61669922 326.81933594 C139.99605105 329.54983359 141.39190416 332.26927065 142.80859375 334.98046875 C155.56481758 359.5322475 166.48698445 388.68527291 166.7734375 416.66015625 C166.78358887 417.35206055 166.79374023 418.04396484 166.80419922 418.75683594 C166.7282134 423.05699125 165.9466395 425.80195124 163.3359375 429.22265625 C158.93969494 432.36282951 155.9734032 432.33212497 150.88998413 431.67514038 C146.30887008 430.86353366 141.91807599 429.49586877 137.48046875 428.1171875 C136.44213394 427.80160889 135.40379913 427.48603027 134.33399963 427.16088867 C130.93649946 426.12639015 127.54252024 425.0808068 124.1484375 424.03515625 C121.7634129 423.30678453 119.37815566 422.57917418 116.99267578 421.85229492 C112.12126863 420.36664712 107.25121535 418.87668516 102.38232422 417.3828125 C95.96466284 415.41409353 89.54376066 413.45622592 83.12109375 411.50390625 C82.16303833 411.21251266 81.20498291 410.92111908 80.21789551 410.62089539 C75.51869154 409.19183672 70.8189713 407.76449829 66.11865234 406.33911133 C57.45706324 403.71001196 48.80213451 401.06336637 40.1652832 398.35392761 C36.16263826 397.10020164 32.15631621 395.85849613 28.1494751 394.61825562 C26.24915713 394.02649577 24.35062699 393.42896026 22.45404053 392.8253479 C19.84474363 391.99529196 17.23004725 391.18504881 14.61328125 390.37890625 C13.46044395 390.00363045 13.46044395 390.00363045 12.28431702 389.62077332 C9.01951675 388.63388419 6.82512824 388.09136593 3.49047852 388.98632812 C1.84882865 389.92834681 0.21543592 390.88477082 -1.4140625 391.84765625 C-6.41115784 393.96181197 -10.99678235 394.27608862 -16.11816406 392.25341797 C-18.77345762 390.86766395 -21.34291683 389.38384617 -23.9140625 387.84765625 C-25.86477233 386.73663414 -27.81796094 385.62995446 -29.7734375 384.52734375 C-31.24780273 383.69154785 -31.24780273 383.69154785 -32.75195312 382.83886719 C-70.60564376 361.83019583 -116.22095186 348.4457608 -159.6640625 354.53515625 C-160.93527954 354.71159668 -160.93527954 354.71159668 -162.23217773 354.89160156 C-167.48658637 355.69593699 -172.44630939 356.94974297 -177.50463867 358.58300781 C-180.40620537 359.44248828 -182.66936021 359.71016593 -185.6640625 359.22265625 C-188.36396912 357.42271851 -190.205949 356.13888325 -191.6640625 353.22265625 C-192.06872088 347.50685662 -190.99083494 342.98896263 -189.1640625 337.66015625 C-188.76247925 336.48042236 -188.76247925 336.48042236 -188.3527832 335.27685547 C-181.30832211 315.46242657 -167.32354274 299.85826111 -152.6640625 285.22265625 C-148.29154761 280.67167136 -144.27912327 276.46755789 -142.6640625 270.22265625 C-143.01599486 265.23831185 -144.40818938 260.7003698 -146.2890625 256.09765625 C-147.94653101 251.86854846 -148.25942465 248.76229265 -147.6640625 244.22265625 C-142.00705589 235.73714634 -129.46495149 232.59372468 -120.18359375 229.984375 C-117.74864834 229.46464923 -117.74864834 229.46464923 -116.6640625 228.22265625 C-117.37691406 228.02671875 -118.08976562 227.83078125 -118.82421875 227.62890625 C-126.12408113 225.34954142 -130.31807662 222.53663574 -134.6640625 216.22265625 C-136.28541735 212.97994655 -136.21756329 209.72816123 -135.6640625 206.22265625 C-132.49974604 201.15974991 -127.94917645 198.00614591 -123.2890625 194.3515625 C-115.22309875 187.80996987 -106.78795761 180.07841641 -105.0390625 169.41015625 C-105.42148678 164.64897397 -107.17525003 160.15626632 -108.640625 155.640625 C-115.1387105 133.93900357 -112.16817729 110.33583651 -101.7890625 90.41015625 C-98.84511281 85.29186808 -95.4819751 80.71880083 -91.6640625 76.22265625 C-90.94605469 75.35898438 -90.22804688 74.4953125 -89.48828125 73.60546875 C-74.32266455 56.08185928 -53.86877553 44.54597471 -32.1328125 36.99609375 C-31.070625 36.61710937 -30.0084375 36.238125 -28.9140625 35.84765625 C-27.99109375 35.55117188 -27.068125 35.2546875 -26.1171875 34.94921875 C-21.67264555 31.82105388 -20.18784188 26.90107352 -19.16992188 21.69580078 C-18.70794551 18.24747717 -18.359892 14.79818633 -18.0625 11.33203125 C-17.57644971 7.13664976 -17.15804265 4.0931994 -14 1.11328125 C-8.95890417 -1.74373325 -5.53622599 -1.17452982 0 0 Z " fill="#1C130F" transform="translate(233.6640625,6.77734375)"/>
<path d="M0 0 C31.83405637 5.18380358 67.07624669 33.95277095 86 59 C86.97646484 60.23556641 86.97646484 60.23556641 87.97265625 61.49609375 C100.16292158 77.41856755 107.71802802 95.10287832 112.9375 114.3125 C113.27358276 115.54117798 113.27358276 115.54117798 113.61645508 116.79467773 C115.12283197 122.63150408 115.12283197 122.63150408 114 126 C111.42313815 125.48717413 108.84631613 124.97414988 106.26953125 124.4609375 C105.46025681 124.29977448 104.65098236 124.13861145 103.81718445 123.9725647 C99.30835821 123.07397787 94.80017289 122.17231509 90.29296875 121.265625 C88.44140726 120.89322413 86.58984476 120.5208283 84.73828125 120.1484375 C83.35487045 119.87009064 83.35487045 119.87009064 81.94351196 119.58612061 C76.54392694 118.50226033 71.14016628 117.44621579 65.73046875 116.4140625 C50.36318942 113.43955415 35.63067563 109.60531653 21 104 C20.33145996 103.74782715 19.66291992 103.4956543 18.97412109 103.23583984 C11.32171204 100.24855829 6.50802529 95.95119769 1.25390625 89.68359375 C-6.31562768 80.67099443 -14.63014715 75.23724305 -26.42578125 73.6796875 C-31.9272648 73.40230177 -34.51778247 74.58635237 -39 78 C-44.67989507 83.91808422 -49.59391654 90.63809567 -54.4375 97.25 C-54.85032227 97.80349121 -55.26314453 98.35698242 -55.68847656 98.92724609 C-60.27356722 105.32782062 -62.87029776 111.28420534 -61.73925781 119.26855469 C-60.23299591 124.83396361 -57.24054368 129.66276163 -54.375 134.625 C-53.0894853 136.93382856 -51.80820948 139.24502252 -50.53125 141.55859375 C-49.61085938 143.22124268 -49.61085938 143.22124268 -48.671875 144.91748047 C-40.99129956 159.07854145 -34.75623199 175.06087921 -34.9375 191.375 C-34.94652344 192.43460938 -34.95554687 193.49421875 -34.96484375 194.5859375 C-34.97644531 195.38257813 -34.98804688 196.17921875 -35 197 C-38.76896792 198.25632264 -40.41730021 197.56445507 -44.23046875 196.5234375 C-45.49729492 196.1845752 -46.76412109 195.84571289 -48.06933594 195.49658203 C-49.07716125 195.22180023 -49.07716125 195.22180023 -50.10534668 194.94146729 C-53.61540427 193.98652666 -57.13324087 193.06159318 -60.65234375 192.140625 C-61.35968658 191.95545319 -62.06702942 191.77028137 -62.79580688 191.57949829 C-76.38396952 188.05575817 -90.18759122 185.47053917 -104 183 C-104 180 -104 180 -102.71484375 178.5625 C-102.12832031 178.046875 -101.54179687 177.53125 -100.9375 177 C-92.66716436 169.03101262 -86.04569355 157.89700017 -85.77734375 146.22265625 C-85.85790487 141.25871004 -86.81404039 136.79710612 -88 132 C-92.72656928 110.60280442 -91.93755531 89.13249506 -80.203125 70.2578125 C-76.89586818 65.36729444 -73.19381027 61.14302018 -69 57 C-68.33742187 56.31550781 -67.67484375 55.63101563 -66.9921875 54.92578125 C-56.24716025 44.52802674 -42.54651426 39.04960234 -28.60131836 34.35766602 C-19.2021013 31.08813535 -10.57798402 26.45728923 -5.25 17.75390625 C-2.68207476 12.09644596 -1.35354326 6.04317256 0 0 Z " fill="#276C76" transform="translate(236,31)"/>
<path d="M0 0 C6.05341572 0.30267079 9.73183986 2.95647987 14 7 C19.98520433 13.78410469 23.59096354 21.98612392 27.30078125 30.14453125 C27.6042749 30.810896 27.90776855 31.47726074 28.22045898 32.16381836 C29 34 29 34 29.8671875 36.8671875 C30.86162519 39.2208895 30.86162519 39.2208895 33.45703125 40.30078125 C34.56433594 40.63464844 35.67164063 40.96851563 36.8125 41.3125 C37.45719238 41.51141846 38.10188477 41.71033691 38.76611328 41.9152832 C46.8254381 44.35087326 54.97900172 46.49102595 63.10205078 48.7019043 C81.86480741 53.83255021 100.50319215 59.48081686 119 65.5 C119.72340576 65.73090332 120.44681152 65.96180664 121.19213867 66.19970703 C122.81567132 66.74067951 124.41230117 67.36146895 126 68 C127.63509059 71.27018118 126.06349086 74.57599071 125.25 78 C123.43602264 86.08051626 122.23755511 94.14700337 121.3125 102.375 C121.19358398 103.43074219 121.07466797 104.48648438 120.95214844 105.57421875 C119.73664883 116.82547162 118.83122979 127.9906356 118.9375 139.3125 C118.94426758 140.72692383 118.94426758 140.72692383 118.95117188 142.16992188 C118.96272906 144.4466879 118.97901217 146.72330489 119 149 C114.80966896 148.43450947 111.34349913 147.46776827 107.4921875 145.734375 C106.43684814 145.26290039 105.38150879 144.79142578 104.29418945 144.30566406 C103.16585693 143.79229492 102.03752441 143.27892578 100.875 142.75 C99.69446045 142.21858398 98.5139209 141.68716797 97.29760742 141.13964844 C93.52595191 139.43904304 89.76219831 137.72140768 86 136 C85.07027374 135.57509277 85.07027374 135.57509277 84.12176514 135.14160156 C65.26626732 126.519688 46.69299519 117.5228826 28.35375977 107.85498047 C27.09583618 107.19199951 27.09583618 107.19199951 25.8125 106.515625 C25.00377441 106.08056641 24.19504883 105.64550781 23.36181641 105.19726562 C21.04161175 103.97228832 21.04161175 103.97228832 18.68115234 103.09960938 C13.52444332 101.03179123 13.52444332 101.03179123 12.07128906 98.17285156 C11.41905828 95.78990657 11.00343486 93.44141934 10.625 91 C6.61418061 70.80005507 -1.13111006 51.71192108 -10.32836914 33.34887695 C-10.82199951 32.33913818 -11.31562988 31.32939941 -11.82421875 30.2890625 C-12.49070435 28.96962646 -12.49070435 28.96962646 -13.1706543 27.62353516 C-14.20316879 24.35730004 -13.84034883 22.29231004 -13 19 C-11.58203125 16.2890625 -11.58203125 16.2890625 -9.8125 13.625 C-9.18859375 12.68269531 -8.5646875 11.74039063 -7.921875 10.76953125 C-5.37750391 7.10294771 -2.74964952 3.51511971 0 0 Z " fill="#276C76" transform="translate(209,124)"/>
<path d="M0 0 C0.639375 0.04785645 1.27875 0.09571289 1.9375 0.14501953 C25.7703358 2.0393414 46.66654675 9.44818822 67 22 C68.06734375 22.64066406 69.1346875 23.28132813 70.234375 23.94140625 C80.53520987 30.31293204 90.0954127 37.69179779 99.59887695 45.18798828 C101.94782026 47.01850076 101.94782026 47.01850076 104.39135742 48.47998047 C109.64723241 51.81252043 109.64723241 51.81252043 110.63671875 55.14331055 C110.82984781 57.72667414 110.74794114 60.1663603 110.5625 62.75 C110.51222656 64.11934692 110.51222656 64.11934692 110.4609375 65.51635742 C110.34733669 68.34780854 110.17697217 71.17187686 110 74 C109.91261481 75.79283684 109.82788431 77.58580547 109.74609375 79.37890625 C109.54354047 83.58973212 109.28757872 87.79416117 109 92 C91.93935091 89.37528476 73.65980295 75.11707807 59.2253418 66.26513672 C34.42277783 51.08368766 6.15459632 38.69147126 -23.4375 38.90234375 C-24.20304199 38.9037587 -24.96858398 38.90517365 -25.75732422 38.90663147 C-28.17159142 38.91217147 -30.58576144 38.92471221 -33 38.9375 C-34.64973823 38.94252277 -36.29947794 38.94708431 -37.94921875 38.95117188 C-41.96618255 38.96212114 -45.98307487 38.97934334 -50 39 C-49.78706299 38.36151123 -49.57412598 37.72302246 -49.35473633 37.06518555 C-47.69565564 31.86873727 -46.60511318 27.31974225 -46.6875 21.8125 C-46.69136719 20.68457031 -46.69523437 19.55664062 -46.69921875 18.39453125 C-47.03025245 14.65857946 -47.86332117 11.56400893 -49 8 C-33.42343115 2.83503025 -16.5296789 -1.29421936 0 0 Z " fill="#EF6F30" transform="translate(158,252)"/>
<path d="M0 0 C1.17175781 0.26554687 2.34351563 0.53109375 3.55078125 0.8046875 C29.54320233 7.26504342 29.54320233 7.26504342 55 1 C60.11784576 8.11607632 64.03995329 15.66852519 67.8125 23.5625 C68.11680939 24.19660797 68.42111877 24.83071594 68.73464966 25.48403931 C91 72.05633091 91 72.05633091 91 93 C82.93231556 91.06094906 74.98714762 88.86636608 67.0625 86.41015625 C65.95554276 86.06947113 64.84858551 85.72878601 63.70808411 85.3777771 C60.13740744 84.27688824 56.56851332 83.17037989 53 82.0625 C51.77912689 81.68417023 50.55825378 81.30584045 49.30038452 80.91604614 C-8.91232178 62.8615711 -8.91232178 62.8615711 -32 53 C-30.81129032 47.78048387 -30.81129032 47.78048387 -28 46 C-24.8871398 46.22638983 -22.05955032 46.69238862 -19.0625 47.5625 C-14.46920758 48.53683476 -10.45960615 48.57115023 -6.125 46.875 C-3.23940983 44.32889102 -2.89614987 42.79047174 -2 39 C-1.80784479 34.80875583 -1.90970409 30.63091341 -2 26.4375 C-2.11041416 17.39984966 -2.00706573 8.8525935 0 0 Z " fill="#276C76" transform="translate(288,319)"/>
<path d="M0 0 C1.53111439 0.80466395 3.07008888 1.59433672 4.61035156 2.38134766 C12.66237001 6.6019676 20.22396717 11.6089829 27.79394531 16.62744141 C29.54371121 17.78235647 31.30663782 18.91727599 33.07128906 20.04931641 C33.97878906 20.64744141 34.88628906 21.24556641 35.82128906 21.86181641 C36.98337891 22.61785156 36.98337891 22.61785156 38.16894531 23.38916016 C38.69359375 23.89576172 39.21824219 24.40236328 39.75878906 24.92431641 C39.75878906 29.94464156 37.75515277 31.71224216 34.57128906 35.23681641 C33.55890884 36.39134757 32.54846831 37.54758266 31.54003906 38.70556641 C30.81494141 39.53507812 30.81494141 39.53507812 30.07519531 40.38134766 C27.76017343 43.09480061 25.75113769 45.9701443 23.75878906 48.92431641 C19.67800541 47.64497831 15.92816567 46.12420922 12.11035156 44.20166016 C-28.10802465 24.22355015 -72.38254963 8.81669967 -117.92871094 12.42431641 C-119.12882812 12.51712891 -120.32894531 12.60994141 -121.56542969 12.70556641 C-122.4484375 12.77775391 -123.33144531 12.84994141 -124.24121094 12.92431641 C-120.50170987 2.57715327 -111.98749817 -5.98230804 -102.17871094 -10.76318359 C-100.21181373 -11.56480702 -98.23173345 -12.33466751 -96.24121094 -13.07568359 C-95.26796875 -13.47013672 -94.29472656 -13.86458984 -93.29199219 -14.27099609 C-62.41968565 -24.72008446 -27.61268835 -14.51399892 0 0 Z " fill="#F69C32" transform="translate(198.2412109375,325.07568359375)"/>
</svg>
